<?xml version="1.0" encoding="utf-8"?>
<!-- Generator: Adobe Illustrator 24.0.2, SVG Export Plug-In . SVG Version: 6.00 Build 0)  -->
<svg version="1.1" id="Layer_1" xmlns="http://www.w3.org/2000/svg" xmlns:xlink="http://www.w3.org/1999/xlink" x="0px" y="0px"
	 viewBox="0 0 1921.2 435.8" style="enable-background:new 0 0 1921.2 435.8;" xml:space="preserve">
<style type="text/css">
	.st0{fill-rule:evenodd;clip-rule:evenodd;fill:#0E181E;}
	.st1{fill:none;stroke:#00A8EB;stroke-linecap:square;}
</style>
<path id="Path_12" class="st0" d="M-1.4,147.8l78.1,0.8c31.2,0.3,61.1,11.4,84.9,31.4L323,315.3c24.1,20.3,54.8,31.4,86.3,31.4
	h1209.9c27.1,0,53.6-8.2,76-23.5L1928,163.8v278.9H-1.4V147.8z"/>
<path id="Path_13" class="st1" d="M1928,163.9l-232.8,159.3c-22.3,15.3-48.8,23.5-75.9,23.5h-1210c-31.6,0-62.2-11.1-86.3-31.4
	L161.8,180.1c-23.9-20-54.1-31.1-85.2-31.4l-78-0.6"/>
<path id="Path_14" class="st1" d="M1928,133.2l-231.3,164.2c-22.1,15.7-48.3,24.3-75.5,24.8l-1209.8,21c-31.6,0.5-62.4-10-86.8-29.9
	L161,181c-24.2-19.6-54.6-30.2-85.8-29.9l-76.6,0.8"/>
<path id="Path_16" class="st1" d="M1928,71l-228.9,174.8c-21.5,16.4-47.5,26-74.6,27.4l-1208.2,63c-31.6,1.6-62.7-7.9-87.8-26.8
	L160.3,182.8c-24.9-18.7-55.6-28.3-86.8-26.9l-74.9,3.4"/>
<path id="Path_17" class="st1" d="M1928,39.5L1700,220c-21.2,16.8-47,26.8-74.1,28.7L419,332.7c-31.6,2.2-62.8-6.8-88.3-25.3
	L160.3,183.8c-25.2-18.3-56.1-27.3-87.2-25.4L-1.4,163"/>
<path id="Path_18" class="st1" d="M1928,7.7l-227.4,186.5c-20.9,17.2-46.5,27.6-73.6,29.9l-1205.3,105c-31.5,2.7-62.9-5.7-88.7-23.8
	L160.5,184.7c-25.5-17.9-56.6-26.3-87.6-23.8l-74.3,5.8"/>
</svg>
