<svg id="Laag_1" data-name="Laag 1" xmlns="http://www.w3.org/2000/svg" viewBox="0 0 130.82 42.7"><defs><style>.cls-1{fill:#009cdb;}.cls-2{fill:#6e6e6e;}.cls-3{fill:none;}</style></defs><title>logo-black</title><rect class="cls-1" x="0.21" y="26.83" width="20.7" height="3.07"/><rect class="cls-1" x="0.21" y="13.41" width="20.7" height="3.07"/><rect class="cls-1" x="0.21" y="20.18" width="20.7" height="2.95"/><rect class="cls-1" x="0.21" width="20.7" height="3.09"/><rect class="cls-1" x="0.21" y="6.79" width="20.7" height="2.93"/><path class="cls-1" d="M28.67,14.31a3,3,0,0,0,2.6-3V6.79s.08-2.91-2.6-3.16H24.5V14.31Z" transform="translate(0.22)"/><path class="cls-1" d="M99.64,29.9h3v-2C102.09,29.47,99.64,29.9,99.64,29.9Z" transform="translate(0.22)"/><path class="cls-1" d="M124.67,10.94h-.53c-2.34,0-2.35,3.53-2.35,3.53V29.9h5.38V14.47C127.17,10.88,124.67,10.94,124.67,10.94Z" transform="translate(0.22)"/><path class="cls-1" d="M90.19,4.61H87V0H28.67C35.4,0,35,6.35,35,6.35V11c0,7.22-6.3,6.66-6.3,6.66H24.5V29.9H37.24V8.78h3.15v3.59c1.93-4.46,5.51-4,5.51-4V12c-5.7-.31-5.42,6-5.42,6v12H50.91a5.64,5.64,0,0,1-3.61-5.54V15.67S47,8.88,51.79,8.41h2.39a5.26,5.26,0,0,1,4.93,5.5V20H50.64V23.3s-.3,4.19,2.56,4.19h.64s2.24.13,2.24-4.19h3v2.18a5,5,0,0,1-3.46,4.42h6.69V8.78h3.25v2h.17a5.06,5.06,0,0,1,4-2.22h.89c2.1,0,3.57,2.22,3.57,2.22h.07A4.73,4.73,0,0,1,78.2,8.57h1.15c3.66,0,3.82,4.15,3.82,4.15V29.9H87V8.78h3.2V29.9h7.09s-3.38-.06-3.38-5.36V8.78h3.38V25.09a2.35,2.35,0,0,0,2,2.59h.83c2.68-.44,2.51-3.62,2.51-3.62V8.78h3.2V29.9h3.7V8.78h3.25v2H113a5.06,5.06,0,0,1,4-2.22h.89c2.1,0,3.57,2.22,3.57,2.22h.07a4.73,4.73,0,0,1,3.88-2.21h1.15c3.66,0,3.82,4.15,3.82,4.15V0H90.19Z" transform="translate(0.22)"/><path class="cls-1" d="M53.74,10.94H53.2s-2.56.11-2.56,3.53v2.82h5.49V14.47S56.23,11.34,53.74,10.94Z" transform="translate(0.22)"/><path class="cls-1" d="M68.85,10.94h-.68c-2.41,0-2.29,3.53-2.29,3.53V29.9h5.25V14.47C71.13,10.54,68.85,10.94,68.85,10.94Z" transform="translate(0.22)"/><path class="cls-1" d="M116.07,10.94h-.68c-2.41,0-2.29,3.53-2.29,3.53V29.9h5.25V14.47C118.35,10.54,116.07,10.94,116.07,10.94Z" transform="translate(0.22)"/><path class="cls-1" d="M77.45,10.94h-.53c-2.33,0-2.35,3.53-2.35,3.53V29.9H80V14.47C80,10.88,77.45,10.94,77.45,10.94Z" transform="translate(0.22)"/><path class="cls-2" d="M2.93,32.36H.61V42.44H1.72V38.32H2.93s1.84.19,1.84-2.24V34.5S4.89,32.36,2.93,32.36Zm.76,3.82a.92.92,0,0,1-.76,1H1.72V33.59H2.93c.78.08.76,1.06.76,1.06Z" transform="translate(0.22)"/><polygon class="cls-2" points="8.96 42.42 13.07 42.42 13.07 41.36 10.08 41.36 10.08 37.73 12.48 37.73 12.48 36.74 10.08 36.74 10.08 33.33 13.07 33.33 13.07 32.33 8.96 32.33 8.96 42.42"/><path class="cls-2" d="M21.33,41.92V39.64s0-2.15-1.11-2.15v-.11a1.38,1.38,0,0,0,1.11-1.32v-2s-.06-1.75-1.11-1.75h-3.4V42.42h1.12V38h1.29a1.08,1.08,0,0,1,1,1.2v2.18s-.11,1.06.4,1.06h1A.56.56,0,0,1,21.33,41.92ZM19.44,37h-1.5V33.36h1.52c.84,0,.76,1,.76,1v1.77A1,1,0,0,1,19.44,37Z" transform="translate(0.22)"/><path class="cls-2" d="M85,41.92V39.64s0-2.15-1.11-2.15v-.11A1.38,1.38,0,0,0,85,36.06v-2s-.06-1.75-1.11-1.75h-3.4V42.42h1.12V38H82.9a1.08,1.08,0,0,1,1,1.2v2.18s-.11,1.06.4,1.06h1A.56.56,0,0,1,85,41.92ZM83.11,37h-1.5V33.36h1.52c.84,0,.76,1,.76,1v1.77A1,1,0,0,1,83.11,37Z" transform="translate(0.22)"/><path class="cls-2" d="M52.26,32.33,50.37,42.42h1l.42-2.16h2.55l.44,2.16h1.08l-2-10.09Zm-.39,7.1L53,33.54l1.16,5.89Z" transform="translate(0.22)"/><path class="cls-2" d="M90.74,32.33,88.85,42.42h1l.41-2.16h2.56l.43,2.16h1.08l-2-10.09Zm-.39,7.1,1.16-5.89,1.16,5.89Z" transform="translate(0.22)"/><polygon class="cls-2" points="45.88 39.43 43.51 32.33 42.08 32.33 42.08 42.42 43.2 42.42 43.18 34.18 45.86 42.42 47 42.42 47 32.33 45.88 32.33 45.88 39.43"/><polygon class="cls-2" points="107.02 39.43 104.66 32.33 103.22 32.33 103.22 42.42 104.34 42.42 104.32 34.18 107 42.42 108.14 42.42 108.14 32.33 107.02 32.33 107.02 39.43"/><polygon class="cls-2" points="120.89 39.43 118.52 32.33 117.09 32.33 117.09 42.42 118.21 42.42 118.19 34.18 120.86 42.42 122.01 42.42 122.01 32.33 120.89 32.33 120.89 39.43"/><polygon class="cls-2" points="60.94 32.33 59.82 32.33 59.82 42.42 63.9 42.42 63.9 41.36 60.94 41.36 60.94 32.33"/><rect class="cls-2" x="112.1" y="32.33" width="1.14" height="10.09"/><rect class="cls-2" x="98.24" y="32.33" width="1.14" height="10.09"/><polygon class="cls-2" points="72.27 33.36 74.12 33.36 74.12 42.42 75.18 42.42 75.18 33.36 77.09 33.36 77.09 32.33 72.27 32.33 72.27 33.36"/><path class="cls-2" d="M35.77,32.33h-.13a2.23,2.23,0,0,0-2.22,2.22V40.2a2.23,2.23,0,0,0,2.22,2.22h.13A2.23,2.23,0,0,0,38,40.2V34.55A2.23,2.23,0,0,0,35.77,32.33ZM37,39.17c0,1.23-.13,2.23-1.36,2.23s-1.19-1.1-1.19-2.33V35.34c0-1.22,0-2.12,1.19-2.12s1.36,1,1.36,2.22Z" transform="translate(0.22)"/><path class="cls-2" d="M130.3,35.53v-1a2.23,2.23,0,0,0-2.22-2.22h-.14a2.23,2.23,0,0,0-2.22,2.22V40.2a2.23,2.23,0,0,0,2.22,2.22h.14a2.23,2.23,0,0,0,2.22-2.22V37h-2.24v1.11h1.23v1.09c0,1.23-.14,2.23-1.36,2.23s-1.2-1.1-1.2-2.33V35.34c0-1.22,0-2.12,1.2-2.12s1.36,1,1.36,2.22v.09Z" transform="translate(0.22)"/><path class="cls-2" d="M27.33,32.23a2.11,2.11,0,0,0-1.67.69,2.2,2.2,0,0,0-.5,1.09,4.07,4.07,0,0,0,0,1.31,2.69,2.69,0,0,0,.21.75,3.15,3.15,0,0,0,.51.81,4.16,4.16,0,0,0,.76.65,6.22,6.22,0,0,1,1,.79c.19.19.36.4.5.57a1.5,1.5,0,0,1,.3.59,2.58,2.58,0,0,1,0,.56,1.53,1.53,0,0,1-.31,1.08.91.91,0,0,1-.68.22c-1,0-1.22-.6-1.22-1.87v-.1H25v.1c0,.83,0,3.05,2.43,3.05A2.13,2.13,0,0,0,29,42a2.39,2.39,0,0,0,.62-1.38,4.79,4.79,0,0,0,0-.57v-.13a2.47,2.47,0,0,0-.86-2.07,7.47,7.47,0,0,0-1.32-1.15l-.13-.09a2.43,2.43,0,0,1-.74-.76,1,1,0,0,1-.15-.32,1.71,1.71,0,0,1-.09-.51.86.86,0,0,0,0-.16,1.67,1.67,0,0,1,.27-1.13.92.92,0,0,1,.74-.27,1.11,1.11,0,0,1,.82.29,1.9,1.9,0,0,1,.38,1.15c0,.16,0,.28,0,.28v.11h1.22v-.09A3.27,3.27,0,0,0,29,32.9,2.29,2.29,0,0,0,27.33,32.23Z" transform="translate(0.22)"/><rect class="cls-3" y="0.14" width="130.82" height="42.56"/></svg>