<svg id="logo" xmlns="http://www.w3.org/2000/svg" width="143.075" height="46.7" viewBox="0 0 143.075 46.7">
  <rect id="Rectangle_27" data-name="Rectangle 27" width="22.639" height="3.358" transform="translate(0.23 29.343)" fill="#009cdb"/>
  <rect id="Rectangle_28" data-name="Rectangle 28" width="22.639" height="3.358" transform="translate(0.23 14.666)" fill="#009cdb"/>
  <rect id="Rectangle_29" data-name="Rectangle 29" width="22.639" height="3.226" transform="translate(0.23 22.07)" fill="#009cdb"/>
  <rect id="Rectangle_30" data-name="Rectangle 30" width="22.639" height="3.379" transform="translate(0.23)" fill="#009cdb"/>
  <rect id="Rectangle_31" data-name="Rectangle 31" width="22.639" height="3.204" transform="translate(0.23 7.426)" fill="#009cdb"/>
  <path id="Path_19" data-name="Path 19" d="M29.061,15.31A3.281,3.281,0,0,0,31.9,12.029V7.086S31.992,3.9,29.061,3.63H24.5V15.31Z" transform="translate(2.536 0.34)" fill="#009cdb"/>
  <path id="Path_20" data-name="Path 20" d="M99.64,30.087h3.281V27.9C102.319,29.617,99.64,30.087,99.64,30.087Z" transform="translate(9.575 2.614)" fill="#009cdb"/>
  <path id="Path_21" data-name="Path 21" d="M124.94,10.94h-.58c-2.559,0-2.57,3.861-2.57,3.861V31.676h5.884V14.8C127.674,10.874,124.94,10.94,124.94,10.94Z" transform="translate(11.65 1.025)" fill="#009cdb"/>
  <path id="Path_22" data-name="Path 22" d="M96.344,5.042H92.855V0H29.061c7.36,0,6.923,6.945,6.923,6.945V12.03c0,7.9-6.89,7.284-6.89,7.284H24.5V32.7H38.433V9.6h3.445v3.926C43.989,8.651,47.9,9.154,47.9,9.154v3.97c-6.234-.339-5.928,6.562-5.928,6.562V32.81H53.384a6.168,6.168,0,0,1-3.948-6.059V17.138s-.328-7.426,4.911-7.94H56.96a5.753,5.753,0,0,1,5.392,6.015v6.66H53.089v3.609s-.328,4.583,2.8,4.583h.7s2.45.142,2.45-4.583h3.281v2.384A5.468,5.468,0,0,1,58.535,32.7h7.317V9.6h3.554V11.79h.186a5.534,5.534,0,0,1,4.375-2.428h.973c2.3,0,3.9,2.428,3.9,2.428h.077A5.173,5.173,0,0,1,83.23,9.373h1.258c4,0,4.178,4.539,4.178,4.539V32.7h4.189V9.6h3.5V32.7h7.754s-3.7-.066-3.7-5.862V9.6h3.7V27.44a2.57,2.57,0,0,0,2.187,2.833h.908c2.931-.481,2.745-3.959,2.745-3.959V9.6h3.5V32.7H117.5V9.6h3.554V11.79h.241a5.534,5.534,0,0,1,4.375-2.428h.973c2.3,0,3.9,2.428,3.9,2.428h.077a5.173,5.173,0,0,1,4.243-2.417h1.258c4,0,4.178,4.539,4.178,4.539V0H96.344Z" transform="translate(2.536)" fill="#009cdb"/>
  <path id="Path_23" data-name="Path 23" d="M54.03,10.94H53.44s-2.8.12-2.8,3.861v3.084h6V14.8S56.754,11.377,54.03,10.94Z" transform="translate(4.984 1.025)" fill="#009cdb"/>
  <path id="Path_24" data-name="Path 24" d="M69.128,10.941h-.744c-2.636,0-2.5,3.861-2.5,3.861V31.677h5.742V14.8C71.622,10.5,69.128,10.941,69.128,10.941Z" transform="translate(6.412 1.024)" fill="#009cdb"/>
  <path id="Path_25" data-name="Path 25" d="M116.348,10.941H115.6c-2.636,0-2.5,3.861-2.5,3.861V31.677h5.742V14.8C118.842,10.5,116.348,10.941,116.348,10.941Z" transform="translate(10.835 1.024)" fill="#009cdb"/>
  <path id="Path_26" data-name="Path 26" d="M77.72,10.94h-.58c-2.548,0-2.57,3.861-2.57,3.861V31.676h5.939V14.8C80.509,10.874,77.72,10.94,77.72,10.94Z" transform="translate(7.226 1.025)" fill="#009cdb"/>
  <path id="Path_27" data-name="Path 27" d="M3.147,32.36H.61V43.384H1.824V38.878H3.147s2.012.208,2.012-2.45V34.7S5.291,32.36,3.147,32.36Zm.831,4.178a1.006,1.006,0,0,1-.831,1.094H1.824V33.705H3.147c.853.087.831,1.159.831,1.159Z" transform="translate(0.298 3.031)" fill="#fff"/>
  <path id="Path_28" data-name="Path 28" d="M8.96,43.365h4.5V42.206h-3.27v-3.97H12.81V37.153H10.185V33.424h3.27V32.33H8.96Z" transform="translate(0.839 3.029)" fill="#fff"/>
  <path id="Path_29" data-name="Path 29" d="M21.752,42.82V40.327s0-2.351-1.214-2.351v-.12a1.509,1.509,0,0,0,1.214-1.444V34.224s-.066-1.914-1.214-1.914H16.82V43.367h1.225V38.533h1.411a1.181,1.181,0,0,1,1.094,1.312V42.23s-.12,1.159.437,1.159h1.094A.612.612,0,0,1,21.752,42.82Zm-2.067-5.381H18.045V33.458h1.662c.919,0,.831,1.094.831,1.094v1.936a1.094,1.094,0,0,1-.853.951Z" transform="translate(1.816 3.027)" fill="#fff"/>
  <path id="Path_30" data-name="Path 30" d="M85.422,42.82V40.327s0-2.351-1.214-2.351v-.12a1.509,1.509,0,0,0,1.214-1.444V34.224s-.066-1.914-1.214-1.914H80.49V43.367h1.225V38.533h1.411a1.181,1.181,0,0,1,1.094,1.312V42.23s-.12,1.159.437,1.159h1.094A.612.612,0,0,1,85.422,42.82Zm-2.067-5.381H81.715V33.458h1.662c.919,0,.831,1.094.831,1.094v1.936a1.094,1.094,0,0,1-.853.951Z" transform="translate(7.781 3.027)" fill="#fff"/>
  <path id="Path_31" data-name="Path 31" d="M52.437,32.33,50.37,43.365h1.094L51.923,41h2.789l.481,2.362h1.181L54.187,32.33ZM52.011,40.1l1.236-6.442L54.515,40.1Z" transform="translate(4.959 3.029)" fill="#fff"/>
  <path id="Path_32" data-name="Path 32" d="M90.917,32.33,88.85,43.365h1.094L90.392,41h2.8l.47,2.362h1.181L92.656,32.33ZM90.491,40.1l1.269-6.442L93.028,40.1Z" transform="translate(8.564 3.029)" fill="#fff"/>
  <path id="Path_33" data-name="Path 33" d="M46.236,40.1,43.644,32.33H42.08V43.365H43.3l-.022-9.012,2.931,9.012h1.247V32.33H46.236Z" transform="translate(3.942 3.029)" fill="#fff"/>
  <path id="Path_34" data-name="Path 34" d="M107.376,40.1l-2.581-7.765H103.22V43.365h1.225l-.022-9.012,2.931,9.012H108.6V32.33h-1.225Z" transform="translate(9.669 3.029)" fill="#fff"/>
  <path id="Path_35" data-name="Path 35" d="M121.246,40.1l-2.592-7.765H117.09V43.365h1.225l-.022-9.012,2.92,9.012h1.258V32.33h-1.225Z" transform="translate(10.969 3.029)" fill="#fff"/>
  <path id="Path_36" data-name="Path 36" d="M61.045,32.33H59.82V43.365h4.462V42.206H61.045Z" transform="translate(5.604 3.029)" fill="#fff"/>
  <rect id="Rectangle_32" data-name="Rectangle 32" width="1.247" height="11.035" transform="translate(122.601 35.359)" fill="#fff"/>
  <rect id="Rectangle_33" data-name="Rectangle 33" width="1.247" height="11.035" transform="translate(107.443 35.359)" fill="#fff"/>
  <path id="Path_37" data-name="Path 37" d="M72.27,33.456h2.023v9.909h1.159V33.456h2.089V32.33H72.27Z" transform="translate(6.77 3.029)" fill="#fff"/>
  <path id="Path_38" data-name="Path 38" d="M35.99,32.33h-.142a2.439,2.439,0,0,0-2.428,2.428v6.179a2.439,2.439,0,0,0,2.428,2.428h.142a2.439,2.439,0,0,0,2.439-2.428V34.758A2.439,2.439,0,0,0,35.99,32.33Zm1.345,7.481c0,1.345-.142,2.439-1.487,2.439s-1.3-1.2-1.3-2.548V35.622c0-1.334,0-2.319,1.3-2.319s1.487,1.094,1.487,2.428Z" transform="translate(3.371 3.029)" fill="#fff"/>
  <path id="Path_39" data-name="Path 39" d="M130.729,35.832V34.738A2.439,2.439,0,0,0,128.3,32.31h-.153a2.439,2.439,0,0,0-2.428,2.428v6.2a2.439,2.439,0,0,0,2.428,2.428h.153a2.439,2.439,0,0,0,2.428-2.428v-3.5h-2.45v1.214h1.345v1.192c0,1.345-.153,2.439-1.487,2.439s-1.312-1.2-1.312-2.548V35.624c0-1.334,0-2.319,1.312-2.319s1.487,1.094,1.487,2.428v.1Z" transform="translate(12.018 3.027)" fill="#fff"/>
  <path id="Path_40" data-name="Path 40" d="M27.548,32.23a2.308,2.308,0,0,0-1.826.755,2.406,2.406,0,0,0-.547,1.192,4.451,4.451,0,0,0,0,1.433,2.942,2.942,0,0,0,.23.82,3.445,3.445,0,0,0,.558.886,4.55,4.55,0,0,0,.831.711,6.8,6.8,0,0,1,1.094.864c.208.208.394.437.547.623a1.641,1.641,0,0,1,.328.645,2.822,2.822,0,0,1,0,.612,1.673,1.673,0,0,1-.339,1.181,1,1,0,0,1-.744.241c-1.094,0-1.334-.656-1.334-2.045v-.109H25v.109c0,.908,0,3.336,2.658,3.336a2.33,2.33,0,0,0,1.717-.569,2.614,2.614,0,0,0,.678-1.509,5.239,5.239,0,0,0,0-.623v-.142a2.7,2.7,0,0,0-.941-2.264,8.17,8.17,0,0,0-1.444-1.258l-.142-.1a2.658,2.658,0,0,1-.809-.831,1.094,1.094,0,0,1-.164-.35,1.87,1.87,0,0,1-.1-.558.94.94,0,0,0,0-.175,1.826,1.826,0,0,1,.3-1.236,1.006,1.006,0,0,1,.809-.3,1.214,1.214,0,0,1,.9.317,2.078,2.078,0,0,1,.416,1.258v.427h1.334v-.1a3.576,3.576,0,0,0-.831-2.515A2.5,2.5,0,0,0,27.548,32.23Z" transform="translate(2.583 3.019)" fill="#fff"/>
  <rect id="Rectangle_34" data-name="Rectangle 34" width="143.075" height="46.547" transform="translate(0 0.153)" fill="none"/>
</svg>
